<svg xmlns="http://www.w3.org/2000/svg" viewBox="0 0 1600 1000">
  <defs>
    <linearGradient id="bg" x1="0" y1="0" x2="1" y2="1">
      <stop offset="0" stop-color="#123B38"/>
      <stop offset=".55" stop-color="#1F2937"/>
      <stop offset="1" stop-color="#142A2E"/>
    </linearGradient>
    <radialGradient id="glow" cx=".5" cy=".82" r=".65">
      <stop offset="0" stop-color="#37CDBE" stop-opacity=".4"/>
      <stop offset="1" stop-color="#37CDBE" stop-opacity="0"/>
    </radialGradient>
    <pattern id="dots" width="44" height="44" patternUnits="userSpaceOnUse">
      <circle cx="2" cy="2" r="1.6" fill="#FFFFFF" opacity=".05"/>
    </pattern>
  </defs>
  <rect width="1600" height="1000" fill="url(#bg)"/>
  <rect width="1600" height="1000" fill="url(#dots)"/>
  <circle cx="800" cy="1520" r="1060" fill="none" stroke="#37CDBE" stroke-opacity=".28"/>
  <circle cx="800" cy="1520" r="860" fill="none" stroke="#37CDBE" stroke-opacity=".16"/>
  <circle cx="800" cy="1520" r="660" fill="url(#glow)"/>
  <g transform="translate(800 560)">
    <path d="M -210 40 A 210 210 0 0 1 210 40 L 210 96 L -210 96 Z" fill="#37CDBE" opacity=".9"/>
    <g stroke="#F0FBFA" stroke-width="13" stroke-linecap="round" opacity=".7">
      <line x1="0" y1="-190" x2="0" y2="-120"/>
      <line x1="-118" y1="-152" x2="-84" y2="-92"/>
      <line x1="118" y1="-152" x2="84" y2="-92"/>
      <line x1="-196" y1="-64" x2="-136" y2="-34"/>
      <line x1="196" y1="-64" x2="136" y2="-34"/>
    </g>
    <circle cx="0" cy="-215" r="26" fill="#F0FBFA" opacity=".85"/>
  </g>
</svg>